<svg id="visual" viewBox="0 0 960 540" width="960" height="540" xmlns="http://www.w3.org/2000/svg" xmlns:xlink="http://www.w3.org/1999/xlink" version="1.1"><rect x="0" y="0" width="960" height="540" fill="#fcfcfc"></rect><path d="M0 75L13.3 75.5C26.7 76 53.3 77 80 86.2C106.7 95.3 133.3 112.7 160 121C186.7 129.3 213.3 128.7 240 123.8C266.7 119 293.3 110 320 104.7C346.7 99.3 373.3 97.7 400 100C426.7 102.3 453.3 108.7 480 115C506.7 121.3 533.3 127.7 560 131C586.7 134.3 613.3 134.7 640 128.5C666.7 122.3 693.3 109.7 720 107.8C746.7 106 773.3 115 800 113.8C826.7 112.7 853.3 101.3 880 101.3C906.7 101.3 933.3 112.7 946.7 118.3L960 124L960 0L946.7 0C933.3 0 906.7 0 880 0C853.3 0 826.7 0 800 0C773.3 0 746.7 0 720 0C693.3 0 666.7 0 640 0C613.3 0 586.7 0 560 0C533.3 0 506.7 0 480 0C453.3 0 426.7 0 400 0C373.3 0 346.7 0 320 0C293.3 0 266.7 0 240 0C213.3 0 186.7 0 160 0C133.3 0 106.7 0 80 0C53.3 0 26.7 0 13.3 0L0 0Z" fill="#3b9bcd"></path><path d="M0 65L13.3 69.5C26.7 74 53.3 83 80 85C106.7 87 133.3 82 160 83.5C186.7 85 213.3 93 240 91C266.7 89 293.3 77 320 76.3C346.7 75.7 373.3 86.3 400 89.2C426.7 92 453.3 87 480 81.8C506.7 76.7 533.3 71.3 560 67.7C586.7 64 613.3 62 640 63.7C666.7 65.3 693.3 70.7 720 74.7C746.7 78.7 773.3 81.3 800 86C826.7 90.7 853.3 97.3 880 99.8C906.7 102.3 933.3 100.7 946.7 99.8L960 99L960 0L946.7 0C933.3 0 906.7 0 880 0C853.3 0 826.7 0 800 0C773.3 0 746.7 0 720 0C693.3 0 666.7 0 640 0C613.3 0 586.7 0 560 0C533.3 0 506.7 0 480 0C453.3 0 426.7 0 400 0C373.3 0 346.7 0 320 0C293.3 0 266.7 0 240 0C213.3 0 186.7 0 160 0C133.3 0 106.7 0 80 0C53.3 0 26.7 0 13.3 0L0 0Z" fill="#29a2ce"></path><path d="M0 90L13.3 90.5C26.7 91 53.3 92 80 92.3C106.7 92.7 133.3 92.3 160 87.7C186.7 83 213.3 74 240 75C266.7 76 293.3 87 320 87C346.7 87 373.3 76 400 74.2C426.7 72.3 453.3 79.7 480 78C506.7 76.3 533.3 65.7 560 60.7C586.7 55.7 613.3 56.3 640 61.8C666.7 67.3 693.3 77.7 720 82.5C746.7 87.3 773.3 86.7 800 87.2C826.7 87.7 853.3 89.3 880 86C906.7 82.7 933.3 74.3 946.7 70.2L960 66L960 0L946.7 0C933.3 0 906.7 0 880 0C853.3 0 826.7 0 800 0C773.3 0 746.7 0 720 0C693.3 0 666.7 0 640 0C613.3 0 586.7 0 560 0C533.3 0 506.7 0 480 0C453.3 0 426.7 0 400 0C373.3 0 346.7 0 320 0C293.3 0 266.7 0 240 0C213.3 0 186.7 0 160 0C133.3 0 106.7 0 80 0C53.3 0 26.7 0 13.3 0L0 0Z" fill="#14a8cd"></path><path d="M0 47L13.3 49C26.7 51 53.3 55 80 54.8C106.7 54.7 133.3 50.3 160 47.7C186.7 45 213.3 44 240 43.5C266.7 43 293.3 43 320 45.8C346.7 48.7 373.3 54.3 400 56C426.7 57.7 453.3 55.3 480 55.7C506.7 56 533.3 59 560 61C586.7 63 613.3 64 640 61C666.7 58 693.3 51 720 48.3C746.7 45.7 773.3 47.3 800 51.8C826.7 56.3 853.3 63.7 880 62.7C906.7 61.7 933.3 52.3 946.7 47.7L960 43L960 0L946.7 0C933.3 0 906.7 0 880 0C853.3 0 826.7 0 800 0C773.3 0 746.7 0 720 0C693.3 0 666.7 0 640 0C613.3 0 586.7 0 560 0C533.3 0 506.7 0 480 0C453.3 0 426.7 0 400 0C373.3 0 346.7 0 320 0C293.3 0 266.7 0 240 0C213.3 0 186.7 0 160 0C133.3 0 106.7 0 80 0C53.3 0 26.7 0 13.3 0L0 0Z" fill="#00aeca"></path><path d="M0 67L13.3 66.3C26.7 65.7 53.3 64.3 80 58.2C106.7 52 133.3 41 160 39.3C186.7 37.7 213.3 45.3 240 49.7C266.7 54 293.3 55 320 54.3C346.7 53.7 373.3 51.3 400 52C426.7 52.7 453.3 56.3 480 58.8C506.7 61.3 533.3 62.7 560 63.7C586.7 64.7 613.3 65.3 640 64.3C666.7 63.3 693.3 60.7 720 58.5C746.7 56.3 773.3 54.7 800 50.2C826.7 45.7 853.3 38.3 880 37C906.7 35.7 933.3 40.3 946.7 42.7L960 45L960 0L946.7 0C933.3 0 906.7 0 880 0C853.3 0 826.7 0 800 0C773.3 0 746.7 0 720 0C693.3 0 666.7 0 640 0C613.3 0 586.7 0 560 0C533.3 0 506.7 0 480 0C453.3 0 426.7 0 400 0C373.3 0 346.7 0 320 0C293.3 0 266.7 0 240 0C213.3 0 186.7 0 160 0C133.3 0 106.7 0 80 0C53.3 0 26.7 0 13.3 0L0 0Z" fill="#00b3c6"></path><path d="M0 19L13.3 22.2C26.7 25.3 53.3 31.7 80 34.3C106.7 37 133.3 36 160 33.2C186.7 30.3 213.3 25.7 240 25.3C266.7 25 293.3 29 320 33.2C346.7 37.3 373.3 41.7 400 39.7C426.7 37.7 453.3 29.3 480 25.3C506.7 21.3 533.3 21.7 560 25C586.7 28.3 613.3 34.7 640 38.8C666.7 43 693.3 45 720 44.2C746.7 43.3 773.3 39.7 800 37.2C826.7 34.7 853.3 33.3 880 32.3C906.7 31.3 933.3 30.7 946.7 30.3L960 30L960 0L946.7 0C933.3 0 906.7 0 880 0C853.3 0 826.7 0 800 0C773.3 0 746.7 0 720 0C693.3 0 666.7 0 640 0C613.3 0 586.7 0 560 0C533.3 0 506.7 0 480 0C453.3 0 426.7 0 400 0C373.3 0 346.7 0 320 0C293.3 0 266.7 0 240 0C213.3 0 186.7 0 160 0C133.3 0 106.7 0 80 0C53.3 0 26.7 0 13.3 0L0 0Z" fill="#00b8c0"></path><path d="M0 13L13.3 13.7C26.7 14.3 53.3 15.7 80 17.8C106.7 20 133.3 23 160 23.3C186.7 23.7 213.3 21.3 240 20C266.7 18.7 293.3 18.3 320 18.7C346.7 19 373.3 20 400 21.7C426.7 23.3 453.3 25.7 480 24.5C506.7 23.3 533.3 18.7 560 17C586.7 15.3 613.3 16.7 640 15.7C666.7 14.7 693.3 11.3 720 10.3C746.7 9.3 773.3 10.7 800 12.2C826.7 13.7 853.3 15.3 880 15.7C906.7 16 933.3 15 946.7 14.5L960 14L960 0L946.7 0C933.3 0 906.7 0 880 0C853.3 0 826.7 0 800 0C773.3 0 746.7 0 720 0C693.3 0 666.7 0 640 0C613.3 0 586.7 0 560 0C533.3 0 506.7 0 480 0C453.3 0 426.7 0 400 0C373.3 0 346.7 0 320 0C293.3 0 266.7 0 240 0C213.3 0 186.7 0 160 0C133.3 0 106.7 0 80 0C53.3 0 26.7 0 13.3 0L0 0Z" fill="#00bdb8"></path></svg>